#!OML:ASF H:\ColoradoDance\Project 1\Capture day 1\Session 8\male.ASF
:FULLY-SPECIFIED
:DEGREES
1
upperback 2.554840 1.418920 8.287620
rfoot -2.564220 -30.070801
lradius 21.357300
lthumb 8.150760 64.258598
rradius 20.697701
lwrist -5.833830
rhand -23.636400 6.085080
rhumerus 9.594260 -34.855999 -4.671050
lowerneck -4.709260 -4.690230 -0.313957
lhand -18.123899 34.435799
ltibia 28.776699
head 6.184320 -3.155900 1.387990
rwrist 2.056750
lfingers 7.125020
rtoes -5.983330
lowerback 8.835070 0.460995 6.573740
rfingers 7.125020
lclavicle 0.000000 0.000000
upperneck 17.090900 -7.341790 5.806820
rfemur -46.389999 15.259200 -24.989500
thorax -2.349720 0.680118 4.828130
rclavicle 0.000000 0.000000
rtibia 31.066500
lfoot -21.682100 17.961599
lhumerus -8.642850 20.962999 -6.114980
rthumb 2.828500 -23.875900
root -8.206920 19.566401 19.241501 7.004220 -2.036470 -15.430400
ltoes 1.222120
lfemur -10.413200 -0.652518 -2.645000
2
upperback 7.629900 3.670700 13.540200
rfoot -83.238602 -18.504299
lradius 20.184900
lthumb 7.516520 66.015999
rradius 24.012699
lwrist -6.128550
rhand -15.087200 -31.368099
rhumerus 24.557100 -20.179300 -17.157301
lowerneck -8.524310 -3.255850 -1.805350
lhand -18.781000 36.169601
ltibia -0.000000
head 5.911900 -2.119750 0.540280
rwrist 3.389130
lfingers 7.125020
rtoes 48.771599
lowerback 14.324200 1.764090 10.125300
rfingers 7.125020
lclavicle -0.000000 -0.000000
upperneck 14.635900 -4.448870 1.848800
rfemur -37.256699 2.058430 -63.835499
thorax -0.088335 1.775650 8.395120
rclavicle -0.000000 -0.000000
rtibia -0.000000
lfoot -10.189500 22.535101
lhumerus -19.853399 31.360300 -9.343100
rthumb 11.080700 -61.055599
root -6.151450 20.226801 18.893801 4.207050 -10.508400 -22.109501
ltoes 13.430600
lfemur 9.598160 1.329890 -2.719220
3
upperback 7.123140 4.738410 12.742700
rfoot 121.617996 109.903000
lradius 20.300400
lthumb 7.892490 68.364197
rradius 25.016701
lwrist -4.912600
rhand -20.240601 -37.897202
rhumerus 28.130600 -28.616199 -18.466900
lowerneck -8.782000 -2.476450 0.947145
lhand -18.391500 38.531502
ltibia -0.000000
head 5.741940 -1.650460 0.183294
rwrist 13.109400
lfingers 7.125020
rtoes 51.797401
lowerback 13.818200 2.556280 10.243500
rfingers 7.125020
lclavicle 0.000000 0.000000
upperneck 14.146800 -3.800500 1.984490
rfemur -78.269501 -49.732201 2.000950
thorax -0.378526 2.339000 7.249500
rclavicle 0.000000 0.000000
rtibia 7.142500
lfoot -9.110320 25.073400
lhumerus -21.248699 33.363602 -13.456200
rthumb 6.107500 -67.789200
root -4.500470 19.954201 19.022301 4.885690 -9.509230 -21.390699
ltoes 16.831699
lfemur 7.502370 -3.285780 -9.529570
4
upperback 4.695670 2.480730 9.689740
rfoot 221.087006 175.505997
lradius 21.319500
lthumb 7.632820 65.403397
rradius 25.143499
lwrist -3.791870
rhand -19.011600 -40.380501
rhumerus 10.666200 -32.374802 -7.518430
lowerneck -7.734030 -2.530170 2.742900
lhand -18.660500 35.561199
ltibia 33.068600
head 6.252700 -1.696130 0.179438
rwrist 9.310050
lfingers 7.125020
rtoes 6.826620
lowerback 9.346780 1.374580 6.453760
rfingers 7.125020
lclavicle 0.000000 0.000000
upperneck 16.350500 -4.346690 3.036330
rfemur -64.208504 -21.979601 11.676700
thorax -0.484946 1.229830 6.318260
rclavicle 0.000000 0.000000
rtibia 43.182999
lfoot -25.616501 15.797600
lhumerus -8.892620 31.391800 -8.544050
rthumb 7.293940 -70.234802
root -2.636770 18.685801 19.453199 5.048000 -1.050350 -15.335200
ltoes 17.362200
lfemur -10.481100 -2.584800 -22.230101
